<?xml version="1.0" encoding="UTF-8"?>
<svg id="App_Store" data-name="App Store" xmlns="http://www.w3.org/2000/svg" version="1.1" viewBox="0 0 28 28">
  <defs>
    <style>
      .cls-1 {
        fill: #231f20;
        stroke-width: 0px;
      }
    </style>
  </defs>
  <path class="cls-1" d="M21.6,14.9c0-3.5,2.9-5.3,3-5.3-1.7-2.4-4.2-2.8-5.1-2.8-2.2-.2-4.3,1.3-5.4,1.3s-2.8-1.3-4.6-1.2c-2.4,0-4.5,1.4-5.8,3.5-2.5,4.3-.6,10.6,1.7,14.1,1.2,1.7,2.6,3.6,4.4,3.5,1.8,0,2.4-1.1,4.6-1.1s2.8,1.1,4.6,1.1,3.1-1.7,4.3-3.4c1.4-2,1.9-3.9,2-4,0,0-3.6-1.4-3.7-5.7"/>
  <path class="cls-1" d="M18.1,4.5C19.1,3.3,19.7,1.7,19.5,0,18.1,0,16.4,1,15.4,2.1c-.9,1-1.7,2.7-1.5,4.3,1.6,0,3.2-.7,4.2-1.9"/>
</svg>