<svg width="189" height="187" viewBox="0 0 189 187" fill="none" xmlns="http://www.w3.org/2000/svg">
<mask id="mask0_918_232" style="mask-type:alpha" maskUnits="userSpaceOnUse" x="0" y="0" width="187" height="187">
<path d="M93.171 186.516C144.628 186.516 186.342 144.763 186.342 93.2579C186.342 41.753 144.628 0 93.171 0C41.7141 0 0 41.753 0 93.2579C0 144.763 41.7141 186.516 93.171 186.516Z" fill="white"/>
</mask>
<g mask="url(#mask0_918_232)">
<path d="M93.171 186.516C144.628 186.516 186.342 144.763 186.342 93.2579C186.342 41.753 144.628 0 93.171 0C41.7141 0 0 41.753 0 93.2579C0 144.763 41.7141 186.516 93.171 186.516Z" fill="#E5F3FF"/>
<g opacity="0.4">
<g opacity="0.4">
<path opacity="0.4" d="M52.6191 197.311C42.3241 197.311 33.9782 188.963 33.9782 178.665C33.9782 168.368 42.3241 160.02 52.6191 160.02C62.9142 160.02 71.26 168.368 71.26 178.665C71.26 188.963 62.9142 197.311 52.6191 197.311Z" fill="white"/>
<path opacity="0.4" d="M85.1817 204.391C70.7165 204.391 58.9901 192.662 58.9901 178.193C58.9901 163.724 70.7165 151.995 85.1817 151.995C99.6469 151.995 111.373 163.724 111.373 178.193C111.373 192.662 99.6469 204.391 85.1817 204.391Z" fill="white"/>
<path opacity="0.4" d="M117.744 182.205C103.279 182.205 91.5526 170.476 91.5526 156.007C91.5526 141.539 103.279 129.81 117.744 129.81C132.209 129.81 143.936 141.539 143.936 156.007C143.936 170.476 132.209 182.205 117.744 182.205Z" fill="white"/>
</g>
</g>
<g opacity="0.4">
<g opacity="0.75">
<g opacity="0.75">
<path opacity="0.75" d="M205.05 68.9171C190.585 68.9171 178.858 57.1879 178.858 42.7191C178.858 28.2504 190.585 16.5212 205.05 16.5212C219.515 16.5212 231.241 28.2504 231.241 42.7191C231.241 57.1879 219.515 68.9171 205.05 68.9171Z" fill="white"/>
</g>
</g>
</g>
<path fill-rule="evenodd" clip-rule="evenodd" d="M5.0559e-05 101.487L0.000133568 101.423C-0.387262 101.466 -0.78094 101.487 -1.17975 101.487C-7.04403 101.487 -11.798 96.7324 -11.798 90.8667C-11.798 85.001 -7.04403 80.2459 -1.17975 80.2459C3.06335 80.2459 6.72515 82.7353 8.42549 86.3336C9.7304 85.4695 11.2954 84.9663 12.9779 84.9663C16.8001 84.9663 20.0159 87.5635 20.9574 91.0898C21.9859 90.2147 23.3192 89.6866 24.7759 89.6866C28.0338 89.6866 30.6749 92.3283 30.6749 95.5871C30.6749 98.4417 28.6482 100.823 25.9555 101.37L25.9557 101.487H5.0559e-05Z" fill="white" fill-opacity="0.7"/>
<path fill-rule="evenodd" clip-rule="evenodd" d="M132.138 77.8857L132.138 77.6496C131.376 77.8044 130.586 77.8857 129.778 77.8857C123.262 77.8857 117.98 72.6023 117.98 66.0849C117.98 59.5674 123.262 54.284 129.778 54.284C134.488 54.284 138.554 57.0446 140.445 61.0364C142.053 59.7639 144.086 59.0043 146.295 59.0043C150.1 59.0043 153.378 61.2557 154.872 64.4991C155.838 64.0039 156.933 63.7247 158.093 63.7247C162.003 63.7247 165.172 66.8947 165.172 70.8052C165.172 73.888 163.203 76.5106 160.453 77.4827L160.453 77.8857H132.138Z" fill="white" fill-opacity="0.8"/>
<path d="M93 143C120.614 143 143 120.614 143 93C143 65.3858 120.614 43 93 43C65.3858 43 43 65.3858 43 93C43 120.614 65.3858 143 93 143Z" fill="#0087FF"/>
<path fill-rule="evenodd" clip-rule="evenodd" d="M93.321 76.3998H74.91C74.91 76.3998 70.3073 93.6601 70.3073 98.4589C70.3073 103.258 74.91 110.92 74.91 110.92H93.321V76.3998ZM93.3215 76.3998H111.733C111.733 76.3998 116.335 93.6601 116.335 98.4589C116.335 103.258 111.733 110.92 111.733 110.92H93.3215V76.3998Z" fill="#FFF3D5"/>
<path d="M104.757 89.3558C104.987 89.3558 105.193 89.5093 105.282 89.7446C105.37 89.9799 105.321 90.2504 105.159 90.4303L93.8109 103.022C93.7043 103.139 93.5602 103.206 93.4093 103.206C93.2584 103.206 93.1143 103.139 93.0077 103.021L81.6925 90.4291C81.5303 90.2492 81.4826 89.9787 81.57 89.7434C81.6585 89.5094 81.8649 89.3559 82.094 89.3559H88.333V76.5H98.5423V89.3558H104.757Z" fill="#FBC841"/>
</g>
<path fill-rule="evenodd" clip-rule="evenodd" d="M179.568 78.5022L175.003 82.7138L174.433 76.5335L169.011 73.4993L174.721 71.0475L175.935 64.9607L180.034 69.6257L186.206 68.8981L183.03 74.233L185.63 79.8701L179.568 78.5022Z" fill="#B3DBFF"/>
<path fill-rule="evenodd" clip-rule="evenodd" d="M31.7896 72.8352L27.2248 77.0467L26.6542 70.8665L21.233 67.8322L26.9421 65.3805L28.1564 59.2937L32.2554 63.9587L38.4271 63.2311L35.2513 68.5659L37.8513 74.2031L31.7896 72.8352Z" fill="#B3DBFF"/>
<path fill-rule="evenodd" clip-rule="evenodd" d="M32.3597 30.1166L26.3685 35.8917L25.5004 27.2873L18.2422 22.9712L25.7854 19.6637L27.2908 11.221L32.8209 17.7812L41.0096 16.8795L36.8841 24.2415L40.4395 32.1268L32.3597 30.1166Z" fill="#B3DBFF"/>
<path fill-rule="evenodd" clip-rule="evenodd" d="M62.2551 25.7325L59.8586 28.0425L59.5114 24.6008L56.6081 22.8743L59.6254 21.5513L60.2276 18.1743L62.4396 20.7983L65.7151 20.4377L64.0649 23.3824L65.487 26.5366L62.2551 25.7325Z" fill="#B3DBFF"/>
<path fill-rule="evenodd" clip-rule="evenodd" d="M178.527 107.158L176.13 109.468L175.783 106.026L172.88 104.299L175.897 102.976L176.499 99.5993L178.711 102.223L181.987 101.863L180.337 104.807L181.759 107.962L178.527 107.158Z" fill="#B3DBFF"/>
<path fill-rule="evenodd" clip-rule="evenodd" d="M162.439 32.8431L160.043 35.1531L159.696 31.7114L156.792 29.9849L159.81 28.6619L160.412 25.2849L162.624 27.909L165.899 27.5483L164.249 30.4931L165.671 33.6472L162.439 32.8431Z" fill="#B3DBFF"/>
<path fill-rule="evenodd" clip-rule="evenodd" d="M19.9708 138.648L17.5743 140.958L17.2271 137.516L14.3238 135.79L17.3411 134.467L17.9433 131.09L20.1553 133.714L23.4308 133.353L21.7806 136.298L23.2027 139.452L19.9708 138.648Z" fill="#B3DBFF"/>
<path fill-rule="evenodd" clip-rule="evenodd" d="M88.5435 9.76928L86.147 12.0793L85.7997 8.63758L82.8964 6.91113L85.9137 5.58812L86.5159 2.21107L88.7279 4.83515L92.0034 4.47447L90.3532 7.41925L91.7754 10.5734L88.5435 9.76928Z" fill="#B3DBFF"/>
</svg>
