<svg width="189" height="187" viewBox="0 0 189 187" fill="none" xmlns="http://www.w3.org/2000/svg">
<mask id="mask0_921_284" style="mask-type:alpha" maskUnits="userSpaceOnUse" x="0" y="0" width="187" height="187">
<path d="M93.171 186.516C144.628 186.516 186.342 144.763 186.342 93.2579C186.342 41.753 144.628 0 93.171 0C41.7141 0 0 41.753 0 93.2579C0 144.763 41.7141 186.516 93.171 186.516Z" fill="white"/>
</mask>
<g mask="url(#mask0_921_284)">
<path d="M93.171 186.516C144.628 186.516 186.342 144.763 186.342 93.2579C186.342 41.753 144.628 0 93.171 0C41.7141 0 0 41.753 0 93.2579C0 144.763 41.7141 186.516 93.171 186.516Z" fill="#E5F3FF"/>
<g opacity="0.4">
<g opacity="0.4">
<path opacity="0.4" d="M52.6191 197.311C42.3241 197.311 33.9782 188.963 33.9782 178.665C33.9782 168.368 42.3241 160.02 52.6191 160.02C62.9142 160.02 71.26 168.368 71.26 178.665C71.26 188.963 62.9142 197.311 52.6191 197.311Z" fill="white"/>
<path opacity="0.4" d="M85.1817 204.391C70.7165 204.391 58.9901 192.662 58.9901 178.193C58.9901 163.724 70.7165 151.995 85.1817 151.995C99.6469 151.995 111.373 163.724 111.373 178.193C111.373 192.662 99.6469 204.391 85.1817 204.391Z" fill="white"/>
<path opacity="0.4" d="M117.744 182.205C103.279 182.205 91.5526 170.476 91.5526 156.007C91.5526 141.539 103.279 129.81 117.744 129.81C132.209 129.81 143.936 141.539 143.936 156.007C143.936 170.476 132.209 182.205 117.744 182.205Z" fill="white"/>
</g>
</g>
<g opacity="0.4">
<g opacity="0.75">
<g opacity="0.75">
<path opacity="0.75" d="M205.05 68.9171C190.585 68.9171 178.858 57.1879 178.858 42.7191C178.858 28.2504 190.585 16.5212 205.05 16.5212C219.515 16.5212 231.241 28.2504 231.241 42.7191C231.241 57.1879 219.515 68.9171 205.05 68.9171Z" fill="white"/>
</g>
</g>
</g>
<path fill-rule="evenodd" clip-rule="evenodd" d="M-7.15113e-05 101.487L1.14972e-05 101.423C-0.387384 101.466 -0.781062 101.487 -1.17987 101.487C-7.04416 101.487 -11.7981 96.7324 -11.7981 90.8667C-11.7981 85.001 -7.04416 80.2459 -1.17987 80.2459C3.06322 80.2459 6.72503 82.7353 8.42537 86.3336C9.73027 85.4695 11.2953 84.9663 12.9778 84.9663C16.8 84.9663 20.0158 87.5635 20.9573 91.0898C21.9858 90.2147 23.3191 89.6866 24.7758 89.6866C28.0337 89.6866 30.6748 92.3283 30.6748 95.5871C30.6748 98.4417 28.6481 100.823 25.9554 101.37L25.9556 101.487H-7.15113e-05Z" fill="white" fill-opacity="0.7"/>
<path fill-rule="evenodd" clip-rule="evenodd" d="M132.138 77.8857L132.138 77.6496C131.376 77.8044 130.586 77.8857 129.778 77.8857C123.262 77.8857 117.98 72.6023 117.98 66.0849C117.98 59.5674 123.262 54.284 129.778 54.284C134.488 54.284 138.554 57.0446 140.445 61.0364C142.053 59.7639 144.086 59.0043 146.295 59.0043C150.1 59.0043 153.378 61.2557 154.872 64.4991C155.838 64.0039 156.933 63.7247 158.093 63.7247C162.003 63.7247 165.172 66.8947 165.172 70.8052C165.172 73.888 163.203 76.5106 160.453 77.4827L160.453 77.8857H132.138Z" fill="white" fill-opacity="0.8"/>
<rect x="40.5" y="39.5" width="106" height="155" rx="9.5" fill="#B3DBFF" stroke="#80C3FF" stroke-width="5"/>
<path d="M153.859 72H32.1411C30.4063 72 29 73.4015 29 75.1303V130.87C29 132.598 30.4063 134 32.1411 134H153.859C155.594 134 157 132.598 157 130.87V75.1303C157 73.4015 155.594 72 153.859 72Z" fill="#0087FF"/>
<mask id="mask1_921_284" style="mask-type:alpha" maskUnits="userSpaceOnUse" x="39" y="84" width="38" height="38">
<path d="M57.9553 121.859C68.424 121.859 76.9106 113.384 76.9106 102.929C76.9106 92.4749 68.424 84 57.9553 84C47.4866 84 39 92.4749 39 102.929C39 113.384 47.4866 121.859 57.9553 121.859Z" fill="white"/>
</mask>
<g mask="url(#mask1_921_284)">
<path d="M57.9553 121.859C68.424 121.859 76.9106 113.384 76.9106 102.929C76.9106 92.4749 68.424 84 57.9553 84C47.4866 84 39 92.4749 39 102.929C39 113.384 47.4866 121.859 57.9553 121.859Z" fill="#FFF3D5"/>
<path d="M57.9553 106.27C62.2659 106.27 65.7604 102.78 65.7604 98.4753C65.7604 94.1706 62.2659 90.6809 57.9553 90.6809C53.6446 90.6809 50.1501 94.1706 50.1501 98.4753C50.1501 102.78 53.6446 106.27 57.9553 106.27Z" fill="#FBC841"/>
<path d="M57.9553 129.653C65.0371 129.653 70.778 123.92 70.778 116.848C70.778 109.776 65.0371 104.043 57.9553 104.043C50.8735 104.043 45.1326 109.776 45.1326 116.848C45.1326 123.92 50.8735 129.653 57.9553 129.653Z" fill="#FBC841"/>
</g>
<path d="M140.426 96H89.4353C88.0903 96 87 97.0903 87 98.4352V98.7791C87 100.124 88.0903 101.214 89.4353 101.214H140.426C141.771 101.214 142.862 100.124 142.862 98.7791V98.4352C142.862 97.0903 141.771 96 140.426 96Z" fill="#80C3FF"/>
<path d="M123.339 106.429H89.4353C88.0903 106.429 87 107.519 87 108.864V109.208C87 110.553 88.0903 111.643 89.4353 111.643H123.339C124.684 111.643 125.775 110.553 125.775 109.208V108.864C125.775 107.519 124.684 106.429 123.339 106.429Z" fill="#80C3FF"/>
</g>
<path fill-rule="evenodd" clip-rule="evenodd" d="M179.568 78.5022L175.003 82.7138L174.433 76.5335L169.011 73.4993L174.721 71.0475L175.935 64.9607L180.034 69.6257L186.206 68.8981L183.03 74.233L185.63 79.8701L179.568 78.5022Z" fill="#B3DBFF"/>
<path fill-rule="evenodd" clip-rule="evenodd" d="M20.8403 79.0472L18.2548 81.4326L17.9317 77.9322L14.8611 76.2136L18.0947 74.8249L18.7825 71.3774L21.1041 74.0196L24.5997 73.6075L22.8009 76.6291L24.2736 79.822L20.8403 79.0472Z" fill="#B3DBFF"/>
<path fill-rule="evenodd" clip-rule="evenodd" d="M32.3596 30.1166L26.3684 35.8917L25.5003 27.2873L18.242 22.9712L25.7853 19.6637L27.2907 11.221L32.8208 17.7812L41.0094 16.8795L36.884 24.2415L40.4394 32.1268L32.3596 30.1166Z" fill="#B3DBFF"/>
<path fill-rule="evenodd" clip-rule="evenodd" d="M62.2551 25.7325L59.8586 28.0425L59.5114 24.6008L56.6081 22.8743L59.6254 21.5513L60.2276 18.1743L62.4396 20.7983L65.7151 20.4377L64.0649 23.3824L65.487 26.5366L62.2551 25.7325Z" fill="#B3DBFF"/>
<path fill-rule="evenodd" clip-rule="evenodd" d="M178.527 107.158L176.13 109.468L175.783 106.026L172.88 104.299L175.897 102.976L176.499 99.5993L178.711 102.223L181.987 101.863L180.337 104.807L181.759 107.962L178.527 107.158Z" fill="#B3DBFF"/>
<path fill-rule="evenodd" clip-rule="evenodd" d="M162.439 32.8431L160.043 35.1531L159.696 31.7114L156.792 29.9849L159.81 28.6619L160.412 25.2849L162.624 27.909L165.899 27.5483L164.249 30.4931L165.671 33.6472L162.439 32.8431Z" fill="#B3DBFF"/>
<path fill-rule="evenodd" clip-rule="evenodd" d="M19.9707 138.648L17.5742 140.958L17.227 137.516L14.3237 135.79L17.341 134.467L17.9431 131.09L20.1552 133.714L23.4306 133.353L21.7805 136.298L23.2026 139.452L19.9707 138.648Z" fill="#B3DBFF"/>
<path fill-rule="evenodd" clip-rule="evenodd" d="M88.5435 9.76928L86.147 12.0793L85.7997 8.63758L82.8964 6.91113L85.9137 5.58812L86.5159 2.21107L88.7279 4.83515L92.0034 4.47447L90.3532 7.41925L91.7754 10.5734L88.5435 9.76928Z" fill="#B3DBFF"/>
</svg>
