<svg width="189" height="187" viewBox="0 0 189 187" fill="none" xmlns="http://www.w3.org/2000/svg">
<mask id="mask0_920_297" style="mask-type:alpha" maskUnits="userSpaceOnUse" x="0" y="0" width="187" height="187">
<path d="M93.171 186.516C144.628 186.516 186.342 144.763 186.342 93.2579C186.342 41.753 144.628 0 93.171 0C41.7141 0 0 41.753 0 93.2579C0 144.763 41.7141 186.516 93.171 186.516Z" fill="white"/>
</mask>
<g mask="url(#mask0_920_297)">
<path d="M93.171 186.516C144.628 186.516 186.342 144.763 186.342 93.2579C186.342 41.753 144.628 0 93.171 0C41.7141 0 0 41.753 0 93.2579C0 144.763 41.7141 186.516 93.171 186.516Z" fill="#E5F3FF"/>
<g opacity="0.4">
<g opacity="0.4">
<path opacity="0.4" d="M52.6191 197.311C42.3241 197.311 33.9782 188.963 33.9782 178.665C33.9782 168.368 42.3241 160.02 52.6191 160.02C62.9142 160.02 71.26 168.368 71.26 178.665C71.26 188.963 62.9142 197.311 52.6191 197.311Z" fill="white"/>
<path opacity="0.4" d="M85.1817 204.391C70.7165 204.391 58.9901 192.662 58.9901 178.193C58.9901 163.724 70.7165 151.995 85.1817 151.995C99.6469 151.995 111.373 163.724 111.373 178.193C111.373 192.662 99.6469 204.391 85.1817 204.391Z" fill="white"/>
<path opacity="0.4" d="M117.744 182.205C103.279 182.205 91.5526 170.476 91.5526 156.007C91.5526 141.539 103.279 129.81 117.744 129.81C132.209 129.81 143.936 141.539 143.936 156.007C143.936 170.476 132.209 182.205 117.744 182.205Z" fill="white"/>
</g>
</g>
<g opacity="0.4">
<g opacity="0.75">
<g opacity="0.75">
<path opacity="0.75" d="M205.05 68.9171C190.585 68.9171 178.858 57.1879 178.858 42.7191C178.858 28.2504 190.585 16.5212 205.05 16.5212C219.515 16.5212 231.241 28.2504 231.241 42.7191C231.241 57.1879 219.515 68.9171 205.05 68.9171Z" fill="white"/>
</g>
</g>
</g>
<path fill-rule="evenodd" clip-rule="evenodd" d="M-7.15113e-05 101.487L1.14972e-05 101.423C-0.387384 101.466 -0.781062 101.487 -1.17987 101.487C-7.04416 101.487 -11.7981 96.7324 -11.7981 90.8667C-11.7981 85.001 -7.04416 80.2459 -1.17987 80.2459C3.06322 80.2459 6.72503 82.7353 8.42537 86.3336C9.73027 85.4695 11.2953 84.9663 12.9778 84.9663C16.8 84.9663 20.0158 87.5635 20.9573 91.0898C21.9858 90.2147 23.3191 89.6866 24.7758 89.6866C28.0337 89.6866 30.6748 92.3283 30.6748 95.5871C30.6748 98.4417 28.6481 100.823 25.9554 101.37L25.9556 101.487H-7.15113e-05Z" fill="white" fill-opacity="0.7"/>
<path fill-rule="evenodd" clip-rule="evenodd" d="M132.138 77.8857L132.138 77.6496C131.376 77.8044 130.586 77.8857 129.778 77.8857C123.262 77.8857 117.98 72.6023 117.98 66.0849C117.98 59.5674 123.262 54.284 129.778 54.284C134.488 54.284 138.554 57.0446 140.445 61.0364C142.053 59.7639 144.086 59.0043 146.295 59.0043C150.1 59.0043 153.378 61.2557 154.872 64.4991C155.838 64.0039 156.933 63.7247 158.093 63.7247C162.003 63.7247 165.172 66.8947 165.172 70.8052C165.172 73.888 163.203 76.5106 160.453 77.4827L160.453 77.8857H132.138Z" fill="white" fill-opacity="0.8"/>
<path d="M64.7775 128.446C87.1811 162.596 124.921 179.671 177.995 179.671H196.256C196.256 175.176 196.256 157.004 196.256 125.153L163.557 117.495L139.389 102.822L110.568 67.5825L62.8762 69.4456L86.6906 115.443L64.7775 128.446Z" fill="#DDAD88"/>
<path fill-rule="evenodd" clip-rule="evenodd" d="M152.095 109.968C145.501 121.711 142.204 134.494 142.204 148.316C142.204 162.139 143.67 171.615 146.602 176.746L104.393 171.248L109.961 116.031L127.808 97.619L152.095 109.968Z" fill="#CC9266"/>
<path d="M46.4094 81.9642L43.0606 81.075C39.118 80.0278 35.0655 82.3467 34.0089 86.2545C32.9528 90.162 35.2925 94.1784 39.2348 95.2256L42.584 96.1152C46.5262 97.162 50.5787 94.8431 51.6353 90.9357C52.6915 87.0278 50.3521 83.0114 46.4094 81.9642Z" fill="#CC9266"/>
<path fill-rule="evenodd" clip-rule="evenodd" d="M152.256 130.972C145.444 112.02 142.038 96.7485 142.038 85.1569C142.038 73.5654 144.548 68.1751 149.567 68.9869C153.152 68.9869 154.944 71.682 154.944 77.0719C154.944 85.1569 166.902 123.174 188.667 123.765L154.968 131.079L152.256 130.972Z" fill="#DDAD88"/>
<path d="M121.314 37.3032H61.7327C51.1455 37.3032 42.563 45.8857 42.563 56.4728V181.853C42.563 192.44 51.1455 201.023 61.7327 201.023H121.314C131.901 201.023 140.484 192.44 140.484 181.853V56.4728C140.484 45.8857 131.901 37.3032 121.314 37.3032Z" fill="#0087FF"/>
<path fill-rule="evenodd" clip-rule="evenodd" d="M127.531 34.1946C136.115 34.1946 143.074 41.1534 143.074 49.7376V192.215C143.074 200.799 136.115 207.758 127.531 207.758H58.106C49.5218 207.758 42.563 200.799 42.563 192.215V49.7376C42.563 41.1534 49.5218 34.1946 58.106 34.1946H127.531ZM126.086 40.2943H59.5515C53.5426 40.2943 48.6714 45.1654 48.6714 51.1743V191.333C48.6714 197.342 53.5426 202.213 59.5515 202.213H126.086C132.095 202.213 136.966 197.342 136.966 191.333V51.1743C136.966 45.1654 132.095 40.2943 126.086 40.2943Z" fill="#0062BA"/>
<path d="M105.771 34.1946H79.8662C77.5771 34.1946 75.7214 36.0503 75.7214 38.3394V43.5204C75.7214 45.8095 77.5771 47.6652 79.8662 47.6652H105.771C108.06 47.6652 109.916 45.8095 109.916 43.5204V38.3394C109.916 36.0503 108.06 34.1946 105.771 34.1946Z" fill="#0062BA"/>
<mask id="mask1_920_297" style="mask-type:alpha" maskUnits="userSpaceOnUse" x="74" y="59" width="38" height="38">
<path d="M92.9553 96.8586C103.424 96.8586 111.911 88.3836 111.911 77.9293C111.911 67.4749 103.424 59 92.9553 59C82.4866 59 74 67.4749 74 77.9293C74 88.3836 82.4866 96.8586 92.9553 96.8586Z" fill="white"/>
</mask>
<g mask="url(#mask1_920_297)">
<path d="M92.9553 96.8586C103.424 96.8586 111.911 88.3836 111.911 77.9293C111.911 67.4749 103.424 59 92.9553 59C82.4866 59 74 67.4749 74 77.9293C74 88.3836 82.4866 96.8586 92.9553 96.8586Z" fill="#E5F3FF"/>
<path d="M92.9553 81.2698C97.2659 81.2698 100.76 77.7801 100.76 73.4753C100.76 69.1706 97.2659 65.6809 92.9553 65.6809C88.6446 65.6809 85.1501 69.1706 85.1501 73.4753C85.1501 77.7801 88.6446 81.2698 92.9553 81.2698Z" fill="#B3DBFF"/>
<path d="M92.9553 104.653C100.037 104.653 105.778 98.92 105.778 91.8479C105.778 84.7758 100.037 79.0428 92.9553 79.0428C85.8735 79.0428 80.1326 84.7758 80.1326 91.8479C80.1326 98.92 85.8735 104.653 92.9553 104.653Z" fill="#B3DBFF"/>
</g>
<path d="M34.0089 127.184C35.0655 123.277 39.118 120.958 43.0606 122.005L46.4095 122.894C50.3521 123.941 52.6915 127.958 51.6353 131.865C51.0814 133.914 49.7043 135.526 47.9514 136.445C50.9351 138.005 52.5451 141.452 51.6353 144.818C50.5787 148.726 46.5262 151.045 42.584 149.997L39.2348 149.108C35.2925 148.061 32.9528 144.045 34.0089 140.137C34.5628 138.088 35.9402 136.476 37.6934 135.557C34.7094 133.998 33.0991 130.551 34.0089 127.184ZM44.5448 103.102C48.6009 103.102 51.8889 106.465 51.8889 110.614C51.8889 114.763 48.6009 118.127 44.5448 118.127H41.0994C37.0437 118.127 33.7554 114.763 33.7554 110.614C33.7554 106.465 37.0437 103.102 41.0994 103.102H44.5448Z" fill="#CC9266"/>
<rect x="62" y="105" width="61" height="8" rx="2" fill="#80C3FF"/>
<rect x="62" y="118" width="61" height="8" rx="2" fill="#80C3FF"/>
<rect x="62" y="131" width="36" height="8" rx="2" fill="#80C3FF"/>
</g>
<path fill-rule="evenodd" clip-rule="evenodd" d="M179.568 78.5022L175.003 82.7138L174.433 76.5335L169.011 73.4993L174.721 71.0475L175.935 64.9607L180.034 69.6257L186.206 68.8981L183.03 74.233L185.63 79.8701L179.568 78.5022Z" fill="#B3DBFF"/>
<path fill-rule="evenodd" clip-rule="evenodd" d="M31.7894 72.8352L27.2247 77.0467L26.6541 70.8665L21.2329 67.8322L26.942 65.3805L28.1563 59.2937L32.2552 63.9587L38.4269 63.2311L35.2511 68.5659L37.8512 74.2031L31.7894 72.8352Z" fill="#B3DBFF"/>
<path fill-rule="evenodd" clip-rule="evenodd" d="M32.3596 30.1166L26.3684 35.8917L25.5003 27.2873L18.242 22.9712L25.7853 19.6637L27.2907 11.221L32.8208 17.7812L41.0094 16.8795L36.884 24.2415L40.4394 32.1268L32.3596 30.1166Z" fill="#B3DBFF"/>
<path fill-rule="evenodd" clip-rule="evenodd" d="M62.2551 25.7325L59.8586 28.0425L59.5114 24.6008L56.6081 22.8743L59.6254 21.5513L60.2276 18.1743L62.4396 20.7983L65.7151 20.4377L64.0649 23.3824L65.487 26.5366L62.2551 25.7325Z" fill="#B3DBFF"/>
<path fill-rule="evenodd" clip-rule="evenodd" d="M178.527 107.158L176.13 109.468L175.783 106.026L172.88 104.299L175.897 102.976L176.499 99.5993L178.711 102.223L181.987 101.863L180.337 104.807L181.759 107.962L178.527 107.158Z" fill="#B3DBFF"/>
<path fill-rule="evenodd" clip-rule="evenodd" d="M162.439 32.8431L160.043 35.1531L159.696 31.7114L156.792 29.9849L159.81 28.6619L160.412 25.2849L162.624 27.909L165.899 27.5483L164.249 30.4931L165.671 33.6472L162.439 32.8431Z" fill="#B3DBFF"/>
<path fill-rule="evenodd" clip-rule="evenodd" d="M19.9707 138.648L17.5742 140.958L17.227 137.516L14.3237 135.79L17.341 134.467L17.9431 131.09L20.1552 133.714L23.4306 133.353L21.7805 136.298L23.2026 139.452L19.9707 138.648Z" fill="#B3DBFF"/>
<path fill-rule="evenodd" clip-rule="evenodd" d="M88.5435 9.76928L86.147 12.0793L85.7997 8.63758L82.8964 6.91113L85.9137 5.58812L86.5159 2.21107L88.7279 4.83515L92.0034 4.47447L90.3532 7.41925L91.7754 10.5734L88.5435 9.76928Z" fill="#B3DBFF"/>
</svg>
